<svg xmlns="http://www.w3.org/2000/svg" viewBox="0 0 800 420" font-family="Segoe UI, sans-serif">
<rect width="800" height="420" fill="#ffffff" rx="8"/>
<text x="64" y="30" fill="#1f2328" font-size="17" font-weight="700">★ Star History — timoncool/VibeVoice_ASR_portable_ru</text>
<text x="776" y="30" fill="#1f2328" font-size="14" text-anchor="end">40 stars · updated 2026-09-29</text>
<line x1="64" y1="364.0" x2="776" y2="364.0" stroke="#d1d9e0" stroke-width="1"/><text x="54" y="368.0" fill="#1f2328" font-size="13" text-anchor="end">0</text><line x1="64" y1="285.0" x2="776" y2="285.0" stroke="#d1d9e0" stroke-width="1"/><text x="54" y="289.0" fill="#1f2328" font-size="13" text-anchor="end">10</text><line x1="64" y1="206.0" x2="776" y2="206.0" stroke="#d1d9e0" stroke-width="1"/><text x="54" y="210.0" fill="#1f2328" font-size="13" text-anchor="end">20</text><line x1="64" y1="127.0" x2="776" y2="127.0" stroke="#d1d9e0" stroke-width="1"/><text x="54" y="131.0" fill="#1f2328" font-size="13" text-anchor="end">30</text><line x1="64" y1="48.0" x2="776" y2="48.0" stroke="#d1d9e0" stroke-width="1"/><text x="54" y="52.0" fill="#1f2328" font-size="13" text-anchor="end">40</text>
<path d="M64.0,364.0 L64.0,356.1 L64.3,348.2 L64.5,340.3 L65.4,332.4 L65.7,324.5 L65.7,316.6 L65.9,308.7 L65.9,300.8 L66.0,292.9 L66.3,285.0 L66.3,277.1 L66.4,269.2 L66.6,261.3 L68.7,253.4 L71.6,245.5 L108.7,237.6 L114.4,229.7 L115.1,221.8 L130.2,213.9 L130.3,206.0 L140.7,198.1 L147.9,190.2 L158.5,182.3 L196.1,174.4 L215.1,166.5 L222.4,158.6 L249.9,150.7 L272.0,142.8 L274.0,134.9 L291.9,127.0 L308.6,119.1 L309.0,111.2 L413.5,103.3 L430.4,95.4 L499.7,87.5 L555.4,79.6 L567.1,71.7 L603.6,63.8 L643.3,55.9 L650.0,48.0 L776.0,48.0" fill="none" stroke="#0969da" stroke-width="2.5" stroke-linejoin="round"/>
<circle cx="776.0" cy="48.0" r="4" fill="#0969da"/>
<text x="64.0" y="388" fill="#1f2328" font-size="13" text-anchor="middle">Feb 03, 2026</text><text x="301.3" y="388" fill="#1f2328" font-size="13" text-anchor="middle">Apr 24, 2026</text><text x="538.7" y="388" fill="#1f2328" font-size="13" text-anchor="middle">Jul 12, 2026</text><text x="776.0" y="388" fill="#1f2328" font-size="13" text-anchor="middle">Sep 29, 2026</text>
</svg>