<svg xmlns="http://www.w3.org/2000/svg" viewBox="0 0 800 420" font-family="Segoe UI, sans-serif">
<rect width="800" height="420" fill="#ffffff" rx="8"/>
<text x="64" y="30" fill="#1f2328" font-size="17" font-weight="700">★ Star History — timoncool/VibeVoice_ASR_portable_ru</text>
<text x="776" y="30" fill="#1f2328" font-size="14" text-anchor="end">40 stars · updated 2026-10-06</text>
<line x1="64" y1="364.0" x2="776" y2="364.0" stroke="#d1d9e0" stroke-width="1"/><text x="54" y="368.0" fill="#1f2328" font-size="13" text-anchor="end">0</text><line x1="64" y1="285.0" x2="776" y2="285.0" stroke="#d1d9e0" stroke-width="1"/><text x="54" y="289.0" fill="#1f2328" font-size="13" text-anchor="end">10</text><line x1="64" y1="206.0" x2="776" y2="206.0" stroke="#d1d9e0" stroke-width="1"/><text x="54" y="210.0" fill="#1f2328" font-size="13" text-anchor="end">20</text><line x1="64" y1="127.0" x2="776" y2="127.0" stroke="#d1d9e0" stroke-width="1"/><text x="54" y="131.0" fill="#1f2328" font-size="13" text-anchor="end">30</text><line x1="64" y1="48.0" x2="776" y2="48.0" stroke="#d1d9e0" stroke-width="1"/><text x="54" y="52.0" fill="#1f2328" font-size="13" text-anchor="end">40</text>
<path d="M64.0,364.0 L64.0,356.1 L64.3,348.2 L64.5,340.3 L65.4,332.4 L65.6,324.5 L65.7,316.6 L65.8,308.7 L65.9,300.8 L65.9,292.9 L66.2,285.0 L66.2,277.1 L66.3,269.2 L66.5,261.3 L68.5,253.4 L71.4,245.5 L107.5,237.6 L113.0,229.7 L113.7,221.8 L128.3,213.9 L128.4,206.0 L138.5,198.1 L145.5,190.2 L155.8,182.3 L192.3,174.4 L210.7,166.5 L217.9,158.6 L244.5,150.7 L266.0,142.8 L268.0,134.9 L285.3,127.0 L301.6,119.1 L302.0,111.2 L403.5,103.3 L419.9,95.4 L487.2,87.5 L541.3,79.6 L552.6,71.7 L588.1,63.8 L626.6,55.9 L633.1,48.0 L776.0,48.0" fill="none" stroke="#0969da" stroke-width="2.5" stroke-linejoin="round"/>
<circle cx="776.0" cy="48.0" r="4" fill="#0969da"/>
<text x="64.0" y="388" fill="#1f2328" font-size="13" text-anchor="middle">Feb 03, 2026</text><text x="301.3" y="388" fill="#1f2328" font-size="13" text-anchor="middle">Apr 26, 2026</text><text x="538.7" y="388" fill="#1f2328" font-size="13" text-anchor="middle">Jul 16, 2026</text><text x="776.0" y="388" fill="#1f2328" font-size="13" text-anchor="middle">Oct 06, 2026</text>
</svg>