<svg xmlns="http://www.w3.org/2000/svg" viewBox="0 0 800 420" font-family="Segoe UI, sans-serif">
<rect width="800" height="420" fill="#0d1117" rx="8"/>
<text x="64" y="30" fill="#e6edf3" font-size="17" font-weight="700">★ Star History — timoncool/VibeVoice_ASR_portable_ru</text>
<text x="776" y="30" fill="#e6edf3" font-size="14" text-anchor="end">35 stars · updated 2026-07-07</text>
<line x1="64" y1="364.0" x2="776" y2="364.0" stroke="#30363d" stroke-width="1"/><text x="54" y="368.0" fill="#e6edf3" font-size="13" text-anchor="end">0</text><line x1="64" y1="282.7" x2="776" y2="282.7" stroke="#30363d" stroke-width="1"/><text x="54" y="286.7" fill="#e6edf3" font-size="13" text-anchor="end">9</text><line x1="64" y1="201.5" x2="776" y2="201.5" stroke="#30363d" stroke-width="1"/><text x="54" y="205.5" fill="#e6edf3" font-size="13" text-anchor="end">18</text><line x1="64" y1="129.3" x2="776" y2="129.3" stroke="#30363d" stroke-width="1"/><text x="54" y="133.3" fill="#e6edf3" font-size="13" text-anchor="end">26</text><line x1="64" y1="48.0" x2="776" y2="48.0" stroke="#30363d" stroke-width="1"/><text x="54" y="52.0" fill="#e6edf3" font-size="13" text-anchor="end">35</text>
<path d="M64.0,364.0 L64.0,355.0 L64.4,345.9 L64.8,336.9 L66.2,327.9 L66.6,318.9 L66.7,309.8 L66.9,300.8 L67.0,291.8 L67.1,282.7 L67.5,273.7 L67.5,264.7 L67.7,255.7 L68.0,246.6 L71.2,237.6 L75.8,228.6 L133.2,219.5 L141.9,210.5 L143.0,201.5 L166.4,192.5 L166.5,183.4 L182.5,174.4 L193.7,165.4 L210.1,156.3 L268.1,147.3 L297.5,138.3 L308.9,129.3 L351.3,120.2 L385.5,111.2 L388.7,102.2 L416.2,93.1 L442.1,84.1 L442.7,75.1 L604.3,66.1 L630.4,57.0 L737.4,48.0 L776.0,48.0" fill="none" stroke="#4f8ff7" stroke-width="2.5" stroke-linejoin="round"/>
<circle cx="776.0" cy="48.0" r="4" fill="#4f8ff7"/>
<text x="64.0" y="388" fill="#e6edf3" font-size="13" text-anchor="middle">Feb 03, 2026</text><text x="301.3" y="388" fill="#e6edf3" font-size="13" text-anchor="middle">Mar 27, 2026</text><text x="538.7" y="388" fill="#e6edf3" font-size="13" text-anchor="middle">May 17, 2026</text><text x="776.0" y="388" fill="#e6edf3" font-size="13" text-anchor="middle">Jul 07, 2026</text>
</svg>