<svg xmlns="http://www.w3.org/2000/svg" viewBox="0 0 800 420" font-family="Segoe UI, sans-serif">
<rect width="800" height="420" fill="#0d1117" rx="8"/>
<text x="64" y="30" fill="#e6edf3" font-size="17" font-weight="700">★ Star History — timoncool/VibeVoice_ASR_portable_ru</text>
<text x="776" y="30" fill="#e6edf3" font-size="14" text-anchor="end">40 stars · updated 2026-09-25</text>
<line x1="64" y1="364.0" x2="776" y2="364.0" stroke="#30363d" stroke-width="1"/><text x="54" y="368.0" fill="#e6edf3" font-size="13" text-anchor="end">0</text><line x1="64" y1="285.0" x2="776" y2="285.0" stroke="#30363d" stroke-width="1"/><text x="54" y="289.0" fill="#e6edf3" font-size="13" text-anchor="end">10</text><line x1="64" y1="206.0" x2="776" y2="206.0" stroke="#30363d" stroke-width="1"/><text x="54" y="210.0" fill="#e6edf3" font-size="13" text-anchor="end">20</text><line x1="64" y1="127.0" x2="776" y2="127.0" stroke="#30363d" stroke-width="1"/><text x="54" y="131.0" fill="#e6edf3" font-size="13" text-anchor="end">30</text><line x1="64" y1="48.0" x2="776" y2="48.0" stroke="#30363d" stroke-width="1"/><text x="54" y="52.0" fill="#e6edf3" font-size="13" text-anchor="end">40</text>
<path d="M64.0,364.0 L64.0,356.1 L64.3,348.2 L64.6,340.3 L65.4,332.4 L65.7,324.5 L65.7,316.6 L65.9,308.7 L66.0,300.8 L66.0,292.9 L66.3,285.0 L66.3,277.1 L66.5,269.2 L66.6,261.3 L68.7,253.4 L71.8,245.5 L109.5,237.6 L115.3,229.7 L116.0,221.8 L131.4,213.9 L131.5,206.0 L142.0,198.1 L149.4,190.2 L160.2,182.3 L198.4,174.4 L217.7,166.5 L225.2,158.6 L253.1,150.7 L275.6,142.8 L277.7,134.9 L295.8,127.0 L312.8,119.1 L313.2,111.2 L419.6,103.3 L436.8,95.4 L507.2,87.5 L563.9,79.6 L575.8,71.7 L612.9,63.8 L653.3,55.9 L660.1,48.0 L776.0,48.0" fill="none" stroke="#4f8ff7" stroke-width="2.5" stroke-linejoin="round"/>
<circle cx="776.0" cy="48.0" r="4" fill="#4f8ff7"/>
<text x="64.0" y="388" fill="#e6edf3" font-size="13" text-anchor="middle">Feb 03, 2026</text><text x="301.3" y="388" fill="#e6edf3" font-size="13" text-anchor="middle">Apr 22, 2026</text><text x="538.7" y="388" fill="#e6edf3" font-size="13" text-anchor="middle">Jul 09, 2026</text><text x="776.0" y="388" fill="#e6edf3" font-size="13" text-anchor="middle">Sep 25, 2026</text>
</svg>